<?xml version="1.0" encoding="utf-8"?>
<!-- Generator: Adobe Illustrator 16.0.0, SVG Export Plug-In . SVG Version: 6.00 Build 0)  -->
<!DOCTYPE svg PUBLIC "-//W3C//DTD SVG 1.1//EN" "http://www.w3.org/Graphics/SVG/1.1/DTD/svg11.dtd">
<svg version="1.1" id="Layer_1" xmlns="http://www.w3.org/2000/svg" xmlns:xlink="http://www.w3.org/1999/xlink" x="0px" y="0px"
	 width="2105px" height="403.5px" viewBox="0 0 2105 403.5" enable-background="new 0 0 2105 403.5" xml:space="preserve">
<g>
	<path fill="#C5DDF9" d="M1302.267,193.301c0,0,117.188-131.175,186.889-130.754c69.698,0.421,145.621,86.401,244.806,159.833
		c111.151,82.29-33.984,85.743-42.359,86.423c-8.377,0.678-297.375-8.344-302.191-12.783c-4.819-4.442-81.983-61.338-81.983-61.338
		L1302.267,193.301z"/>
	<path fill="#C5DDF9" d="M1256.697,166.911c125.188,18.406,313.036,183.817,456.109,183.817
		c143.075,0,173.883-39.563,227.536-31.196c53.651,8.366,125.681,31.196,125.681,31.196l-1063.198,2.775
		C1002.825,353.506,1131.507,148.505,1256.697,166.911z"/>
	<path fill="#C5DDF9" d="M1824.139,166.911c-125.188,18.406-313.035,183.817-456.109,183.817s-173.882-39.563-227.535-31.196
		c-53.652,8.366-125.682,31.196-125.682,31.196l1063.198,2.775C2078.011,353.506,1949.33,148.505,1824.139,166.911z"/>
</g>
<g>
	<path fill="#C5DDF9" d="M328.445,206.07c0,0,117.188-131.174,186.887-130.753s145.621,86.401,244.806,159.833
		c111.15,82.291-33.983,85.742-42.359,86.423c-8.376,0.676-297.374-8.343-302.192-12.785s-81.982-61.337-81.982-61.337
		L328.445,206.07z"/>
	<path fill="#C5DDF9" d="M282.875,179.681c125.19,18.406,313.036,183.818,456.111,183.818c143.072,0,173.883-39.563,227.535-31.198
		c53.651,8.367,125.681,31.198,125.681,31.198L29.003,366.275C29.003,366.275,157.686,161.275,282.875,179.681z"/>
	<path fill="#C5DDF9" d="M850.317,179.681c-125.189,18.406-313.036,183.818-456.111,183.818s-173.882-39.563-227.535-31.198
		c-53.653,8.367-125.681,31.198-125.681,31.198l1063.199,2.776C1104.189,366.275,975.508,161.275,850.317,179.681z"/>
</g>
<path fill="#005281" d="M-0.188,352.854c0,0,512.067-64.342,650.281-60.709C788.307,295.778,1004.938,348,1052.438,349
	s278.096-25.439,336.543-25.977c111.957-1.023,180.695,19.041,217.06,16.74c38.897-2.462,123.565-29.397,170.869-23.992
	c34.224,3.912,315.028,38.725,327.905,37.08l0.123,50.646h-2105L-0.188,352.854z"/>
<g>
	<g>
		<path fill="#005281" d="M1512.25,313.391l-2.549,3.221l-3.1-4.201c0,0,0.377-4.159-0.838-11.13
			c2.064,0.602,5.141,0.307,7.197,1.055C1512.995,308.292,1512.25,313.391,1512.25,313.391z"/>
		<path fill="#005281" d="M1507.298,312.134c0,0,2.073,0.916,2.786,0.872c0.713-0.046,1.712-0.812,2.354-0.226
			c0.645,0.59,1.257,4.851,0.903,5.715c-0.37,0.907-1.167,1.847-1.896,1.892c-0.729,0.047-13.972-1.846-15.852-2.613
			c-1.879-0.77-1.125-2.771,1.068-3.4C1498.86,313.739,1506.348,311.266,1507.298,312.134z"/>
	</g>
	<path fill="#005281" d="M1500.484,273.119c2.369-7.123,31.054-3.676,31.054-3.676c5.657,2.75,3.032,5.213,6.812,9.459
		c-1.99,2.511-3.779,4.567-4.391,4.582c-1.562,0.035-23.502-3.125-23.502-3.125l0.803,26.668c-2.435,0.035-3.84-0.441-6.287-0.33
		C1502.846,295.45,1498.477,279.161,1500.484,273.119z"/>
	<path fill="#005281" d="M1571.757,229.9c-1.618,3.564,8.2-6.488,11.476-5.762c2.452,0.543,4.848,1.699,6.494,3.699
		c7.057,8.559-1.729,27.396-12.641,25.02c-5.241-1.144-8.262-7.771-12.875-10.627c-3.933-2.435-4.808-2.967-6.479-6.729
		c-1.673-3.758-1.664-9.211-0.202-12.795c0.987-2.431,2.109-3.396,3.974-4.288C1564.483,216.984,1577.384,217.49,1571.757,229.9z"/>
	<path fill="#005281" d="M1555.154,274.852c4.246-1.957,6.846-7.281,12.39,0.603c4.692,7.002-3.698,10.597-6.151,11.823
		c-2.593,1.312-28.513,6.621-28.513,6.621c0.036,0.035,2.958,1.132,5.062,5.535c2.036,4.355,8.316,16.064,9.476,16.654
		c1.152,0.59,2.227,1.331,2.227,1.331l-4.264,9.806c0,0-0.966-7.615-1.383-9.119c-0.252-0.896-18.233-25.281-17.771-28.463
		C1527.089,283.747,1550.202,277.131,1555.154,274.852z"/>
	<path fill="#005281" d="M1558.884,325.518c-1.198,7.729,4.168,14.938,11.917,16.004c7.524,1.037,14.562-4.205,15.729-11.709
		c1.196-7.729-4.168-14.938-11.916-16.006C1567.088,312.771,1560.048,318.014,1558.884,325.518z"/>
	<path fill="#A7BFDB" d="M1571.082,338.771c6.123,0.896,11.836-3.354,12.73-9.479c0.896-6.126-3.354-11.837-9.479-12.733
		c-6.124-0.896-11.838,3.355-12.734,9.481C1560.702,332.163,1564.957,337.874,1571.082,338.771z"/>
	
		<ellipse transform="matrix(-0.1208 -0.9927 0.9927 -0.1208 1342.6526 1817.5677)" fill="#005281" cx="1476.208" cy="314.211" rx="14.654" ry="13.988"/>
	<path fill="#A7BFDB" d="M1474.793,325.957c0.936,0.137,1.887,0.146,2.832,0.033c2.952-0.359,5.589-1.91,7.421-4.365
		c1.86-2.495,2.674-5.617,2.286-8.797c-0.653-5.389-4.661-9.672-9.744-10.416c-0.937-0.139-1.891-0.146-2.834-0.032
		c-2.952,0.358-5.588,1.91-7.42,4.366c-1.861,2.493-2.674,5.617-2.288,8.795C1465.702,320.929,1469.709,325.213,1474.793,325.957z"
		/>
	<path fill="#005281" d="M1531.994,257.771c-1.179-0.61-1.626-1.207-1.337-1.395s4.057,1.898,4.576,1.973
		c0.521,0.068-4.369-2.312-4.354-2.646c0.016-0.336,0.175-0.372,0.523-0.324c0.35,0.048,3.734,2.449,4.22,2.303
		c0.48-0.146-2.709-1.857-3.24-2.143c-0.533-0.283,0.044-0.544,1.101-0.176c1.058,0.367,2.058,1.645,3.688,2.031
		c1.627,0.391,1.952,0.131,1.745-0.074c-0.205-0.203-1.548-0.278-1.871-0.438c-0.325-0.154-0.322-0.762,0.947-0.507
		c1.271,0.256,2.024,1.005,2.346,1.517c0.313,0.51,8.824,1.778,11.967,1.188c1.068-0.201,2.697-2.251,3.119-4.459
		c2.921,0.896,4.242,1.456,6.718,3.32c-2.298,4.74-5.217,9.279-7.246,9.164c-4.308-0.242-15.77-6.483-15.77-6.483
		s-3.083,0.007-4.413-0.429c-1.334-0.437-2.729-1.02-3.047-1.723c-0.317-0.705,2.717,0.762,3.312,0.771
		C1535.564,259.252,1533.168,258.378,1531.994,257.771z"/>
	<path fill="#005281" d="M1559.316,240.385c1.311-1.004,5.396-2.353,6.621,3.408c0.612,3.048-1.312,9.475-3.896,14.809
		c-2.476-1.865-5.238-3.17-8.159-4.064C1554.705,250.221,1555.258,243.562,1559.316,240.385z"/>
	<polygon fill="#005281" points="1491.745,252.328 1481.389,250.207 1481.496,253.643 1491.355,254.982 	"/>
	<polygon fill="#005281" points="1494.784,256.132 1496.02,316.438 1481.425,300.581 1488.62,255.475 	"/>
	<path fill="#005281" d="M1566.541,294.475l0.961,1.151l18.559,17.767l-0.166,8.416c0,0-24.05-2.233-28.166-1.291
		c-4.072,0.945-6.318,11.07-6.318,11.07l-50.326-7.292c-4.134-0.6-8.146-3.376-10.694-7.33c-3.235-4.897-7.95-11.097-11.384-12.562
		c-5.938-2.522-13.931-2.148-13.931-2.148l-4.605-3.163c0,0,7.212-9.288,20.479-2.139c12.812,7.106,10.434,19.382,21.85,21.864
		c7.911,1.727,23.125,3.686,31.645,4.717c3.953,0.479,7.432-2.342,7.644-6.295c0.137-2.592-0.222-5.545-1.801-8.197
		c-4.101-6.678-14.622-15.518-14.622-15.518l0.132-4.353L1566.541,294.475z"/>
	<path fill="#005281" d="M1571.299,291.744l-0.258,1.396l-46.893-6.5l0.106-4.041l44.104,5.694
		C1570.283,288.544,1571.602,290.093,1571.299,291.744z"/>
	<polygon fill="#005281" points="1567.502,295.626 1569.145,292.88 1525.406,286.814 1525.62,289.807 	"/>
	<path fill="#005281" d="M1569.138,308.216c0.328-0.049,0.652-0.088,0.98-0.121c14.095-1.389,24.227,10.035,19.543,22.369
		l-30.804-4.428l-7.45,5.552C1551.408,331.588,1556.229,310.136,1569.138,308.216z"/>
	<path fill="#005281" d="M1481.744,236.831c-0.194-2.048,0.265-3.625,1.025-3.522c0.76,0.104,1.521,1.844,1.698,3.89
		c0.167,1.918-0.228,3.424-0.892,3.521l7.438,14.443l-1.508,0.229l-6.155-14.688
		C1482.638,240.477,1481.931,238.794,1481.744,236.831z"/>
	<polygon fill="#005281" points="1494.688,251.505 1496.936,252.157 1498.485,255.993 1494.449,256.376 	"/>
	<path fill="#005281" d="M1481.352,276.704c-0.086,2.864,1.992,5.688,4.636,6.304c2.638,0.617,4.905-1.199,5.081-4.057
		c0.182-2.855-1.872-5.678-4.6-6.303S1481.446,273.84,1481.352,276.704z"/>
	<path fill="#005281" d="M1481.352,276.688c-0.086,2.854,1.682,5.601,3.938,6.125c2.254,0.524,4.202-1.357,4.363-4.207
		c0.167-2.85-1.575-5.588-3.902-6.121C1483.418,271.95,1481.447,273.832,1481.352,276.688z"/>
	<path fill="#005281" d="M1489.255,278.516c0.12-2.091-1.036-5.127-3.521-5.697c-2.396-0.547-3.906,1.699-3.98,3.964
		c-0.084,2.669,1.512,5.226,3.553,5.698C1487.623,283.021,1489.13,280.771,1489.255,278.516z"/>
	<path fill="#005281" d="M1507.424,198.055c-0.333,2.855-0.786,2.679-0.818,3.046c-0.038,0.435,2.646,5.633,2.646,5.633
		s7.806,15.381,8.257,16.194l13.702,11.222l-3.422,8.439c0,0-14.595-12.605-15.249-13.398c-0.65-0.793-8.851-22.801-9.633-24.715
		c0,0-1.755-1.942-2.817-3.204c-1.062-1.257-1.528-2.924-1.774-3.325c-0.036-0.06-0.78-1.439-1.26-3.382
		c-0.413-1.674,0.728-0.268,0.728-0.268s1.308,2.97,1.517,2.829c0.162-0.109-0.646-1.69-1.118-3.537
		c-0.121-0.476-0.24-0.944-0.348-1.376c-0.277-1.134,0.32-1.621,0.797-0.479c0.17,0.404,0.432,1.081,0.553,1.589
		c0.132,0.548,0.425,1.012,0.604,1.458c0.354,0.885,0.603,1.534,0.63,1.5c0.036-0.045,0.229,0.083,0.111-0.426
		c-0.138-0.61-0.709-1.848-0.844-2.76c-0.076-0.518-0.301-1.592-0.301-1.592s-0.042-1.682,0.055-1.715
		c0.521-0.185,0.862,0.96,0.877,1.677c0.236,0.455,0.44,1.589,0.44,1.589s0.916,2.211,1.224,2.087
		c0.13-0.052-0.272-1.473-0.456-2.926c-0.171-1.351-0.125-2.738,0.132-2.811c0.437-0.119,0.777,1.362,0.777,1.362
		s0.188,1.049,0.273,1.393c0.104,0.403,0.504,1.589,0.504,1.589s1.578,4.062,1.856,3.92c0.278-0.141,0.854-0.8,0.838-1.085
		c-0.012-0.285-0.304-0.798-0.315-1.083s0.212-0.664,0.553-0.702c0.344-0.038,0.921,1.322,0.921,1.322
		S1507.521,197.231,1507.424,198.055z"/>
	<path fill="#005281" d="M1522.605,225.91c0.53-0.135,14.946,8.396,15.159,11.773c0.216,3.379-4.629,8.807-8.75,6.681
		c-4.12-2.128-12.577-10.767-12.577-10.767S1520.885,226.342,1522.605,225.91z"/>
	<path fill="#005281" d="M1531.538,269.443l-0.523-2.324c0,0-6.937-19.941-5.396-29.426c0.706-4.199,5.302-5.778,5.879-5.817
		c2.887-0.19,9.061-2.59,13.266,1.304c4.941,4.662,8.578,23.899,7.948,29.354c-0.628,5.452-1.613,15.521-4.834,19.477
		C1544.145,277.768,1537.195,272.193,1531.538,269.443z"/>
	<g>
		<path fill="#005281" d="M1518.396,314.675l-2.55,3.22l-3.101-4.201c0,0,0.377-4.157-0.836-11.131
			c2.063,0.604,5.14,0.31,7.197,1.055C1519.143,309.577,1518.396,314.675,1518.396,314.675z"/>
		<path fill="#005281" d="M1513.445,313.417c0,0,2.072,0.916,2.787,0.872c0.713-0.046,1.711-0.812,2.354-0.225
			c0.645,0.588,1.256,4.851,0.902,5.711c-0.37,0.912-1.165,1.849-1.896,1.895c-0.729,0.047-13.971-1.846-15.852-2.611
			c-1.879-0.771-1.124-2.771,1.066-3.401C1505.008,315.021,1512.496,312.548,1513.445,313.417z"/>
	</g>
	<path fill="#005281" d="M1509.051,275.059c0.479-7.492,22.486-5.613,22.486-5.613c5.657,2.75,12.859,5.968,16.641,10.216
		c-1.99,2.509-5.899,4.94-6.51,4.955c-1.564,0.032-20.515-1.748-20.515-1.748l0.354,25.977l-10.271-0.422
		C1510.719,306.575,1508.459,284.348,1509.051,275.059z"/>
	<path fill="#005281" d="M1532.164,289.785c0.863-5.895,20.404-11.079,25-14.012c0.188-0.121,11.811-7.186,17.353,0.696
		c4.695,7.005-3.697,10.599-6.15,11.825c-2.591,1.312-25.448,4.033-25.448,4.033c0.364,0.488,2.621,2.749,4.724,7.152
		c1.396,2.98,3.644,11.97,5.702,16.146c-1.036,1.037-2.953,0.241-3.887,1.393C1544.987,311.182,1531.777,292.43,1532.164,289.785z"
		/>
	<polygon fill="#005281" points="1574.604,269.175 1575.916,280.505 1556.865,275.959 1560.421,268.898 	"/>
	<path fill="#005281" d="M1560.234,261.749c-0.732-1.022-2.661-4.577-3.213-7.813c-1.064-6.265,3.275-14.399,3.758-14.643
		c0,0,11.787-0.607,13.521,3.956c2.75,7.24,1.499,20.479,1.218,29.489c-0.039,1.255-12.345-0.567-16.161-2.737
		C1560.284,266.639,1561.034,262.88,1560.234,261.749z"/>
	<path fill="#005281" d="M1530.739,258.827c1.849-0.653,1.14-22.896,8.754-25.781c0,0,3.075-1.44,6.264,2.207
		c3.127,3.644-6.823,32.397-10.546,33.726c-5.557,1.978-22.598-7.232-27.009-8.987l1.233-4.692
		C1509.438,255.296,1529.104,259.406,1530.739,258.827z"/>
	<path fill="#005281" d="M1531.471,253.825c0.923-7.543,2.936-18.853,8.021-20.779c0,0,3.074-1.44,6.264,2.207
		c1.818,2.12,1.434,14.336-1.568,23.508C1541.291,256.549,1535.166,254.324,1531.471,253.825z"/>
	<path fill="#005281" d="M1501.526,238.48c-0.307-2.061-1.168-3.769-1.927-3.814c-0.759-0.048-1.108,1.583-0.791,3.645
		c0.301,1.932,1.07,3.551,1.775,3.783l-4.194,13.297l1.601,0.53l2.824-13.802C1501.498,242.035,1501.814,240.455,1501.526,238.48z"
		/>
	
		<ellipse transform="matrix(0.1448 -0.9895 0.9895 0.1448 1050.2556 1689.4984)" fill="#005281" cx="1502.471" cy="237.196" rx="5.423" ry="4.49"/>
	<polygon fill="#005281" points="1487.296,250.709 1487.328,255.271 1494.449,256.376 1494.688,251.505 	"/>
	<g>
		<path fill="#005281" d="M1566.346,232.268c0,0-0.212,5.457,0.214,7.035c0.427,1.578-0.356,6.938-3.816,7.449
			c-3.462,0.512-2.52-6.375-2.448-7.992c0.062-1.613,0.584-6.859,0.584-6.859L1566.346,232.268z"/>
		<path fill="#005281" d="M1566.305,233.926c-0.389,0.312-0.828,0.588-1.326,0.811c-1.743,0.781-3.227,0.562-4.354-0.202
			c0.131-1.433,0.251-2.634,0.251-2.634l5.47,0.367C1566.346,232.268,1566.318,232.961,1566.305,233.926z"/>
		<path fill="#005281" d="M1565.901,221.037c0,0,1.948,0.716,2.954,2.729c1.003,2.012,1.156,7.934-3.248,9.902
			c-4.407,1.971-7.125-2.426-6.729-5.926C1559.273,224.244,1560.642,219.688,1565.901,221.037z"/>
		<path fill="#005281" d="M1568.062,228.407c-0.412,0.866-0.258,1.799,0.35,2.079c0.604,0.281,1.431-0.192,1.845-1.062
			c0.411-0.865,0.255-1.799-0.351-2.079S1568.476,227.539,1568.062,228.407z"/>
		<path fill="#005281" d="M1565.164,220.467c0,0,1.843,5.943,4.027,6.752c2.184,0.809,1.788,3.617,1.788,3.617
			s0.784-6.504-1.133-8.285C1567.933,220.771,1565.164,220.467,1565.164,220.467z"/>
	</g>
	
		<ellipse transform="matrix(0.1448 -0.9895 0.9895 0.1448 1117.7169 1781.2952)" fill="#005281" cx="1589.359" cy="244.035" rx="9.295" ry="8.58"/>
	<polygon fill="#005281" points="1492.25,314.48 1499.639,318.484 1498,262.723 1500.916,262.287 1498.485,255.993 
		1494.449,256.376 	"/>
	<path fill="#005281" d="M1510.487,255.07c0,0-11.526-2.324-14.024-2.101c-0.799,0.071-0.599,2.503-0.062,3.099
		c2.467,2.75,13.334,4.149,13.334,4.149L1510.487,255.07z"/>
	
		<ellipse transform="matrix(0.1448 -0.9895 0.9895 0.1448 1036.5732 1714.4863)" fill="#005281" cx="1510.133" cy="257.576" rx="2.613" ry="1.752"/>
	<path fill="#005281" d="M1508.766,254.732c0,0-2.135-2.66-3.092-2.801c-0.956-0.142-2.303-0.013-2.711-0.072
		c-0.229-0.031-2.931,3.604-2.471,4.229c0.279,0.381,2.433-2.424,2.433-2.424s-2.408,2.86-1.569,3.212
		c0.467,0.193,2.649-2.723,2.649-2.723s-1.87,2.404-1.714,2.529c0.688,0.553,4.052-2.33,4.052-2.33L1508.766,254.732z"/>
	<path fill="#005281" d="M1569.097,239.164c0,0,11.638-13.666,13.962-16.73c2.104-2.774,11.328-13.041,11.632-13.492
		c0.304-0.447-1.978-7.083-1.1-7.11c0.878-0.03,0.987,3.453,1.97,3.239c0.979-0.211,5.502-7.604,5.91-7.107
		c0.764,0.931-2.596,4.632-2.156,4.999c0.438,0.367,3.148-4.185,4.104-3.837c0.951,0.347-2.968,4.068-2.784,4.509
		c0.185,0.438,4.147-3.016,4.478-2.036c0.178,0.53-3.604,2.985-3.094,3.394c0.513,0.406,3.688-1.024,3.834-0.395
		c0.146,0.633-2.818,0.846-4.026,2.219c-1.208,1.375-2.784,1.752-4.069,4.492c-0.635,1.354-6.758,10.599-12.188,18.187
		c-5.568,7.778-10.445,13.892-10.445,13.892L1569.097,239.164z"/>
	<path fill="#005281" d="M1566.653,240.323c0.204-0.954,5.038-5.093,5.038-5.093s6.9,4.153,7.729,5.693c0,0-6.156,4.625-5.367,5.023
		L1566.653,240.323z"/>
	<path fill="#005281" d="M1568.05,235.682c0.771-1.302-0.188-3.404-0.345-3.726c-0.045-0.095,0.771-0.522,0.918-0.501
		c0.553,0.081,0.734,3.025-0.131,4.484c-0.521,0.875-1.555,1.334-3.076,1.362l-0.011-0.514
		C1566.738,236.766,1567.627,236.391,1568.05,235.682z"/>
	<path fill="#005281" d="M1573.41,222.594c0.396,1.897-0.139,5.823-2.195,8.342c-1.588,1.939-3.261,1.515-3.6,1.276
		c-0.337-0.235,2.207-1.844,2.094-6.468c-0.114-4.7-4.603-5.197-7.015-4.573c-2.413,0.624-4.479,6.47-3.668,8.821
		c0.811,2.351-3.848-2.062-1.562-7.832c2.065-5.215,6.885-6.588,11.422-4.609C1570.985,218.466,1572.928,220.266,1573.41,222.594z"
		/>
	<g>
		<path fill="#005281" d="M1564.537,238.002c3.709,0.543,4.31-1.688,4.334-1.788l-1.341-0.333l0.005-0.021
			c-0.018,0.057-0.456,1.318-3.438,0.654c-0.37-0.08-0.739,0.152-0.822,0.525s0.149,0.742,0.522,0.824
			C1564.056,237.924,1564.304,237.968,1564.537,238.002z"/>
	</g>
	<path fill="#005281" d="M1534.8,207.896c0,0,3.093-2.435,4.741,1.316c0,0,1.797-0.688,2.719,1.143c0,0,3.131-0.463,3.202,4.127
		c0,0,1.586-0.065,1.521,1.799c-0.062,1.863-1.176,2.951-1.176,2.951s0.771,0.773,0.132,2.402c-0.546,1.387-1.766,1.434-1.766,1.434
		s-0.673,2.369-1.827,2.94c-1.152,0.574-2.528,0.019-2.528,0.019s-0.571,1.255-1.776,0.959c-1.205-0.295-2.549-1.68-3.993-1.357
		c-1.443,0.324-4.916-0.749-4.916-0.749s-3.729-2.36-1.938-6.261c0,0-1.818-2.199,0.348-4.202c0,0-0.818-3.748,2.138-5.456
		C1532.634,207.251,1534.8,207.896,1534.8,207.896z"/>
	<path fill="#005281" d="M1532.445,227.134l-1.014,3.526c0,0-1.845,5.021-0.594,6.227c1.251,1.206,6.868-5.459,6.868-5.459
		l0.854-9.185L1532.445,227.134z"/>
	<path fill="#005281" d="M1538.286,225.219c-1.609,2.939-4.64,4.448-6.698,4.904l0.857-2.989l6.118-4.892L1538.286,225.219z"/>
	
		<ellipse transform="matrix(-0.1449 0.9894 -0.9894 -0.1449 1983.8364 -1280.3792)" fill="#005281" cx="1545.157" cy="217.006" rx="2.54" ry="1.782"/>
	
		<ellipse transform="matrix(-0.1445 0.9895 -0.9895 -0.1445 1971.0438 -1282.9619)" fill="#005281" cx="1540.123" cy="210.565" rx="1.46" ry="2.168"/>
	<path fill="#005281" d="M1536.735,212.191c-2.692-1.392-5.991,0.053-6.854,2.91c-0.373,1.243-0.775,2.814-1.062,4.56
		c-0.691,4.19,0.884,8.597,2.792,8.876c1.909,0.277,7.579-1.668,8.645-7.604C1540.91,217.27,1539.562,213.652,1536.735,212.191z"/>
	
		<ellipse transform="matrix(0.1446 -0.9895 0.9895 0.1446 1098.261 1713.3291)" fill="#005281" cx="1540.132" cy="221.423" rx="1.695" ry="1.387"/>
	<path fill="#005281" d="M1528.775,208.895c-2.198,1.272-3.234,3.545-2.316,5.071c0.918,1.529,3.445,1.736,5.646,0.466
		c2.198-1.272,3.235-3.546,2.315-5.072C1533.502,207.828,1530.975,207.62,1528.775,208.895z"/>
	
		<ellipse transform="matrix(0.1452 -0.9894 0.9894 0.1452 1103.5162 1699.907)" fill="#005281" cx="1535.516" cy="211.334" rx="1.241" ry="1.848"/>
	
		<ellipse transform="matrix(0.1447 -0.9895 0.9895 0.1447 1094.8134 1697.4073)" fill="#005281" cx="1529.27" cy="215.41" rx="1.596" ry="1.578"/>
	<path fill="#005281" d="M1574.987,276.463c-5.688-8.09-17.614-0.841-17.812-0.717c-0.42,0.268-0.962,0.554-1.601,0.855
		l9.979,12.822c1.525-0.306,2.647-0.588,3.117-0.824C1571.189,287.34,1579.806,283.65,1574.987,276.463z"/>
</g>
<g>
	<g>
		
			<rect x="744.043" y="109.931" transform="matrix(0.0776 -0.997 0.997 0.0776 574.7708 846.389)" fill="#2B478B" width="1.547" height="5.257"/>
		<path fill="#005281" d="M733.688,147.595l2.854-36.626c0.188-2.42,2.304-4.229,4.724-4.041l7.627,0.593
			c2.42,0.189,4.229,2.304,4.039,4.724l-2.854,36.625c-0.188,2.421-2.303,4.23-4.723,4.042l-7.628-0.594
			C735.308,152.13,733.498,150.015,733.688,147.595z"/>
		<path fill="#005281" d="M718.08,146.315l2.075-26.651c0.19-2.454,2.337-4.29,4.792-4.099l7.501,0.584
			c2.454,0.191,4.29,2.336,4.1,4.791l-2.076,26.652c-0.189,2.455-2.338,4.291-4.792,4.099l-7.499-0.584
			C719.723,150.916,717.889,148.771,718.08,146.315z"/>
		
			<rect x="803.164" y="158.039" transform="matrix(0.997 0.0769 -0.0769 0.997 14.837 -61.3028)" fill="#005281" width="0.787" height="7.996"/>
		
			<rect x="708.171" y="150.648" transform="matrix(0.997 0.0775 -0.0775 0.997 14.1168 -54.4504)" fill="#005281" width="0.788" height="7.997"/>
		<path fill="#005281" d="M744.074,136.316l54.135,4.217c2.654,0.207,4.641,2.527,4.434,5.183l-0.525,6.772
			c-0.208,2.656-2.526,4.641-5.186,4.434l-54.133-4.217c-2.655-0.207-4.643-2.527-4.435-5.183l0.525-6.773
			C739.099,138.094,741.42,136.109,744.074,136.316z"/>
		
			<rect x="746.708" y="142.473" transform="matrix(0.997 0.0773 -0.0773 0.997 13.4498 -57.3561)" fill="#2B478B" width="2.173" height="5.257"/>
		<path fill="#005281" d="M754.884,120.668l35.068,2.732c2.851,0.222,4.979,2.713,4.759,5.562l-0.475,6.069
			c-0.224,2.85-2.712,4.979-5.562,4.759l-35.068-2.732c-2.851-0.223-4.979-2.713-4.76-5.563l0.476-6.07
			C749.543,122.577,752.033,120.446,754.884,120.668z"/>
		<g>
			<path fill="#005281" d="M712.003,150.292l37.554,2.903l1.908-16.682l-38.157-2.973c-4.625-0.36-8.667,3.098-9.026,7.723l0,0
				C703.92,145.889,707.378,149.932,712.003,150.292z"/>
		</g>
		<g>
			<polyline fill="#005281" points="781.2,122.324 781.731,122.094 796.98,157.316 796.449,157.546 			"/>
		</g>
		<g>
			
				<rect x="731.797" y="136.798" transform="matrix(0.5339 -0.8456 0.8456 0.5339 234.3627 699.3222)" fill="#005281" width="39.373" height="0.58"/>
		</g>
		<g>
			
				<rect x="695.928" y="132.472" transform="matrix(0.4482 -0.8939 0.8939 0.4482 276.1984 712.9852)" fill="#005281" width="39.435" height="0.579"/>
		</g>
		<g>
			
				<rect x="708.494" y="128.939" transform="matrix(0.405 -0.9143 0.9143 0.405 317.9874 747.1006)" fill="#005281" width="49.052" height="0.579"/>
		</g>
		
			<rect x="704.663" y="153.693" transform="matrix(0.997 0.0777 -0.0777 0.997 14.2701 -58.2944)" fill="#005281" width="103.208" height="1.086"/>
	</g>
	<path fill="#005281" d="M871.105,278.529c0,0-79.523,6.908-80.423,6.271c-0.896-0.637-7.646-45.297-7.646-45.297
		s65.831-6.613,66.883-6.531c1.051,0.082,14.292,12.479,14.421,13.244C864.472,246.986,871.105,278.529,871.105,278.529z"/>
	<path fill="#005281" d="M630.757,271.02c-1.896,0.043-96.813-9.4-96.813-9.4l8.857-21.317c0,0,14.729-18.901,21.668-17.995
		c6.938,0.904,48.893-2.584,55.653,2.932c6.764,5.517,13.474,2.062,15.938,14.188c2.466,12.125,5.006,13.659,1.809,20.604
		C634.672,266.968,630.757,271.02,630.757,271.02z"/>
	<g>
		
			<ellipse transform="matrix(-0.0777 0.997 -0.997 -0.0777 1177.7878 -523.1178)" fill="#005281" cx="830.861" cy="283.224" rx="32.47" ry="32.459"/>
		<path fill="#A7BFDB" d="M853.371,285.007c-0.97,12.438-11.837,21.733-24.271,20.767c-12.437-0.967-21.729-11.836-20.762-24.272
			c0.969-12.44,11.836-21.741,24.271-20.771C845.044,261.695,854.339,272.562,853.371,285.007z"/>
		<circle fill="#005281" cx="830.854" cy="283.25" r="15.104"/>
	</g>
	<g>
		
			<ellipse transform="matrix(-0.0777 0.997 -0.997 -0.0777 889.9437 -295.6079)" fill="#005281" cx="581.706" cy="263.84" rx="32.473" ry="32.461"/>
		
			<ellipse transform="matrix(-0.0777 0.997 -0.997 -0.0777 889.9415 -295.6151)" fill="#A7BFDB" cx="581.708" cy="263.835" rx="22.593" ry="22.584"/>
		<circle fill="#005281" cx="581.701" cy="263.841" r="15.104"/>
	</g>
	<path fill="#005281" d="M509.807,227.245c4.145-17.828,13.281-20.929,39.852-24.124c29.316-3.523,67.437-19.496,67.437-19.496
		s64.894-25.756,80.479-28.077c15.586-2.321,53.162,1.616,84.771,4.331s49.5,12.949,64.589,26.752
		c15.088,13.803,42.211,25.514,42.211,25.514l4.991,1.297c5.132,1.336,8.569,6.16,8.158,11.447l-3.487,44.769
		c-0.396,5.067-4.153,9.235-9.155,10.147l-18.67,3.406l0,0c-1.513,0.143-2.814-1.023-2.86-2.542
		c-0.576-18.47-15.324-33.623-34.206-35.069c-20.076-1.541-37.825,13.674-39.378,33.75c-0.176,2.279-0.138,4.527,0.095,6.728
		c0.24,2.268-1.638,4.192-3.91,4.016l-168.359-13.114c-3.271-0.254-5.589-3.328-4.901-6.537c0.33-1.543,0.562-3.125,0.694-4.741
		c1.604-19.825-13.149-37.513-32.941-39.466c-20.52-2.022-38.6,13.201-40.19,33.654c-0.104,1.354-0.138,2.695-0.096,4.023
		c0.116,3.758-3.021,6.798-6.771,6.507l-24.21-1.887c-4.401-0.343-7.692-4.188-7.352-8.593l1.827-23.447
		C508.659,233.377,509.101,230.283,509.807,227.245z"/>
	<path fill="#005281" d="M900.812,230.102l-19.939-1.555c-1.71-0.133-3.003,1.518-2.465,3.145l1.822,5.519
		c1.739,5.263,6.466,8.967,11.989,9.397l7.263,0.563c1.42,0.11,2.662-0.953,2.771-2.374l0.931-11.924
		C903.296,231.452,902.232,230.212,900.812,230.102z"/>
	<path fill="#005281" d="M898.557,271.312c1.376,0.071,2.241,1.528,1.636,2.766c-1.714,3.496-5.005,6.094-9.015,6.824l-20.92,3.817
		c-1.69,0.158-3.149-1.149-3.204-2.851c-0.106-3.5-0.678-6.893-1.646-10.12c-0.326-1.099,0.535-2.183,1.678-2.12L898.557,271.312z"
		/>
	<path fill="#005281" d="M545.434,252.29c1.561,0.084,2.654,1.543,2.334,3.071c-0.354,1.699-0.604,3.44-0.742,5.219
		c-0.117,1.502-0.15,2.992-0.104,4.464c0.129,4.171-3.354,7.544-7.513,7.222l-26.864-2.095c-4.885-0.379-8.535-4.646-8.154-9.53
		l0.541-6.953c0.153-1.972,1.854-3.461,3.826-3.354L545.434,252.29z"/>
	<path fill="#005281" d="M615.608,194.272l0.149,0.675c0.076,0.343,7.622,34.693,5.611,66.869l-0.054,0.852l99.043,5.775
		l-0.001,0.007l0.876,0.046l0.82,0.047v-0.005l71.115,3.705l0.123-0.751c0.015-0.086,1.522-8.821,8.84-16.635
		c9.679-10.334,25.155-14.4,44.752-11.754l0.724,0.098l9.242-31.234l-0.268-0.344c-0.974-1.249-24.005-30.649-42.861-38.178
		c-18.72-7.475-81.229-10.983-84.229-11.147c-1.119-0.144-27.113-3.324-51.321,5.678c-24.453,9.092-61.562,25.845-61.935,26.013
		L615.608,194.272z M722.19,266.843l8.009-102.803c7.638,0.449,65.523,4.047,82.896,10.982
		c17.359,6.932,39.211,33.944,41.881,37.304l-8.581,28.999c-25.071-3.194-38.605,4.978-45.562,12.438
		c-6.452,6.922-8.536,14.348-9.062,16.703L722.19,266.843z"/>
	<path fill="#005281" d="M900.189,274.078c-1.713,3.496-5.004,6.094-9.014,6.824l-20.92,3.817c-1.69,0.158-3.15-1.149-3.204-2.851
		c-0.042-1.352-0.153-2.688-0.33-4L900.189,274.078z"/>
	<path fill="#005281" d="M546.923,262.486c-0.026,0.855-0.03,1.712-0.003,2.558c0.129,4.171-3.354,7.544-7.513,7.222l-26.864-2.095
		c-4.885-0.379-8.535-4.646-8.154-9.53l0.113-1.459L546.923,262.486z"/>
	<path fill="#005281" d="M616.379,267.896c0.147-1.834,0.157-3.646,0.039-5.435c-0.144-2.146,1.588-3.944,3.735-3.831L795.598,268
		c1.913,0.104,3.147,2.032,2.485,3.83c-1.159,3.137-1.908,6.477-2.18,9.961c-0.18,2.309-0.143,4.586,0.093,6.811
		c0.246,2.321-1.646,4.308-3.977,4.127l-171.36-13.353c-3.36-0.263-5.672-3.435-4.974-6.731
		C616.016,271.102,616.248,269.516,616.379,267.896z"/>
	<path fill="#005281" d="M616.379,267.896c0.004-0.028,0.004-0.062,0.006-0.09l179.521,13.984c-0.178,2.311-0.143,4.586,0.093,6.811
		c0.246,2.321-1.646,4.308-3.977,4.127l-171.36-13.353c-3.36-0.263-5.672-3.435-4.973-6.729
		C616.016,271.102,616.248,269.516,616.379,267.896z"/>
	<path fill="#A7BFDB" d="M835.556,214.094l-96.849-6.625c0,0-5.91-0.619-6.281-6.257c-0.373-5.636,1.558-29.504,1.558-29.504
		s1.073-4.738,5.671-4.441c2.793,0.181,26.305,0.33,48.83,4.873c18.375,3.705,34.876,13.514,46.872,27.542l6.334,7.408
		C841.688,207.089,845.75,214.792,835.556,214.094z"/>
	<path fill="#A7BFDB" d="M722.975,173.897l-1.949,25.03c-0.254,3.251-2.956,5.729-6.121,5.609l-76.282-2.866
		c-1.752-0.066-3.398-0.988-4.285-2.541c-1.207-2.118-1.106-5.44,6.053-9.346c12.45-6.794,43.897-21.133,55.18-21.88
		c7.179-0.475,16.5-0.198,22.33,0.067C720.916,168.107,723.216,170.791,722.975,173.897z"/>
	<path fill="#A7BFDB" d="M822.127,201.301c0,0-62.5-12.093-63.948-10.954c-1.446,1.138-11.811,20.961-13.837,26.447l74.327,5.084
		l5.844-7.479L822.127,201.301z"/>
	<path fill="#005281" d="M687.991,196.522c0,0-6.339,6.416-8.562,13.699l1.599,3.109l3.966-3.596L687.991,196.522z"/>
	<path fill="#005281" d="M683.197,178.025c1.678-7.162,8.638-11.864,15.217-7.813c1.479,0.911,3.443,2.68,4.401,4.131
		c2.591,3.921,2.972,8.545,5.665,12.366c-1.156,0.744-2.548,1.51-4.186,2.223l-1.659-2.615l0.396,3.133
		c-4.772,1.845-11.414,3.156-20.3,2.412C682.01,186.74,682.304,181.846,683.197,178.025z"/>
	<path fill="#005281" d="M697.334,195.172c0,0,6.625,0.095,9.014,3.138c2.389,3.042-7.758,24.851-8.514,28.426
		c-0.758,3.576,3.047,11.123,3.047,11.123s-18.809,7.076-23.009,3.808c0,0,2.968-28.907,3.644-31.45
		c0.678-2.546,5.445-12.736,6.478-13.695C689.02,195.563,697.334,195.172,697.334,195.172z"/>
	<path fill="#005281" d="M695.823,186.203c0,0,0.021,0.196,0.056,0.531c0.171,1.606,0.896,6.946,1.546,8.45
		c0.789,1.816-3.732,7.063-7.614,6.079c-1.155-0.294,1.39-5.038,1.323-5.565c-0.121-1.012-0.285-2.392-0.453-3.805
		c-0.094-0.799-0.188-1.608-0.277-2.368c-0.254-2.161-0.463-3.928-0.463-3.928L695.823,186.203z"/>
	<path fill="#2B478B" d="M821.564,202.477c0.099-0.429,0.294-0.819,0.562-1.176l8.643,10.107c0,0,6.18,11.719-9.33,10.656
		l-4.269-0.293L821.564,202.477z"/>
	<g>
		<path fill="#2B478B" d="M712.99,189.507l0.748,10.332c0,0-6.586,11.72-9.869,10.402c-2.756-1.105-0.18-11.727-0.18-11.727
			s1.987-5.659,1.753-8.586C705.205,187.001,712.99,189.507,712.99,189.507z"/>
		<path fill="#005281" d="M705.442,189.929c-0.237-2.928,7.548-0.421,7.548-0.421l0.062,0.856c-0.275,0.548-0.6,1.011-0.973,1.354
			c-1.921,1.775-4.78,2.708-7.183,2.609C705.262,192.789,705.539,191.129,705.442,189.929z"/>
		<g>
			<path fill="#005281" d="M715.418,175.161c0.229-0.063,0.891,11.771-2.347,14.761c-3.233,2.99-9.133,3.592-11.021,0.892
				c-2.089-2.987-0.992-15.567,3.905-18.521C710.857,169.34,715.418,175.161,715.418,175.161z"/>
			<path fill="#005281" d="M708.213,166.166c3.528,1.013,5.682,3.394,6.462,4.397c1.612,0.32,3.757,1.395,5.747,5.371
				c2.446,4.888-0.032,9.9-3.501,12.183c-3.471,2.283-3.653,5.219-3.653,5.219l-0.396-1.557c-0.294-1.178-0.354-2.409-0.133-3.603
				c0.134-0.717,0.35-1.487,0.694-2.106c0.92-1.635-1.47-2.954-2.055-4.417c-0.451-1.128-0.282-3.614-0.986-5.475l-0.896-1.448
				c0,0-2.181-1.994-4.491-1.66C702.69,173.403,703.684,164.866,708.213,166.166z"/>
		</g>
		<path fill="#005281" d="M715.045,199.53L715.045,199.53c-0.351-0.803-1.08-1.38-1.945-1.526
			c-3.754-0.633-14.144-1.45-20.158,7.318c-0.949,1.383-1.676,2.906-2.229,4.486l-1.474,4.515l27.404,1.239l0.189-3.041
			C717.455,208.109,716.836,203.611,715.045,199.53z"/>
	</g>
	<path fill="#005281" d="M648.678,212.852l-2.714-16.428c-0.182-1.101,0.563-2.14,1.664-2.323c1.101-0.18,2.14,0.563,2.32,1.664
		l2.847,17.219L648.678,212.852z"/>
	<path fill="#005281" d="M658.971,213.188c-1.066-0.791-1.936-1.438-2.521-1.856c-0.043-0.032-2.798-1.627-2.842-1.658v-0.001
		c-0.393-0.178-0.726-0.32-0.805-0.33c-0.217-0.021-1.428-0.535-1.521-0.591c-0.097-0.056-0.608-0.093-0.825-0.116
		c-0.218-0.021-2.421-1.387-2.785-1.595c-0.365-0.21-0.998-0.933-0.998-0.933l-1.434-0.972c-1.052-0.715,0.017-1.555,0.017-1.555
		c-0.493-0.34-0.614-0.696-0.499-1.032c0.117-0.335,0.438-0.592,0.455-0.658c0.02-0.067-0.116-0.2-0.116-0.2
		c-0.321-0.203-0.293-0.724-0.167-0.977c0.127-0.253,0.574-0.533,0.789-0.543c0.217-0.01,0.256-0.103,0.256-0.103
		c-0.018-0.368,0.646-1.213,1.07-1.2c0.426,0.015,2.009,0.947,2.207,0.958c0.196,0.011,0.564-0.008,0.795,0.123
		c0.231,0.133,2.249,0.574,2.575,0.761c0.326,0.188,0.992,1.385,1.517,1.94c0.522,0.556,1.006,1.852,1.164,2.199
		c0.062,0.135,0.416,0.381,0.822,0.633l0,0c0.062,0.074,12.175,5.549,19.381,8.322L658.971,213.188z"/>
	<path fill="#005281" d="M697.951,214.648c1.135-4.574,2.465-9.375,3.662-11.547c2.627-4.761,10.419-7.108,13.889-3.752
		c1.854,1.791,0.392,9.517-1.819,16.11L697.951,214.648z"/>
	<path fill="#005281" d="M809.907,196.363c0,0,9.28,0.492,12.267,2.82c2.983,2.327,0.985,23.008,0.985,23.008l-3.103,0.344
		c0,0-2.219,14.167-4.645,14.729c-2.426,0.56-17.606-5.427-20.525-9.688c-2.92-4.263,9.458-33.028,9.458-33.028L809.907,196.363z"/>
	<g>
		<path fill="#005281" d="M794.722,178.652c-0.609-2.565-0.562-10.167-0.54-12.748c0.141-0.174,0.9-1.225,0.994-3.381
			c0.067-1.523,1.327-3.958,0.339-3.864c-0.985,0.095-1.241,2.73-1.793,2.231c-0.55-0.501-0.386-6.045-1.28-5.959
			c-0.896,0.085-0.701,5.334-1.192,4.886c-0.492-0.447-0.14-5.246-1.406-5.125c-1.267,0.119,0.11,5.685-0.564,5.749
			c-0.683,0.066-1.457-3.464-2.478-3.367c-1.02,0.096,1.291,4.771,1.001,4.507c-0.289-0.264-2.288-2.254-2.677-1.874
			c-0.438,0.431,4.112,6.039,4.021,7.414l0,0c-0.685,3.45-1.994,9.691-1.185,13.741c0.996,4.957,3.68,16.005,3.68,16.005
			l7.646-1.199C799.282,195.668,795.447,181.695,794.722,178.652z"/>
		<path fill="#2B478B" d="M792.817,161.846c-0.384,0.138-0.708,0.368-0.999,0.639c-0.034,0.056-1.039,0.867-0.912,2.322
			C791.141,163.94,791.402,162.98,792.817,161.846z"/>
	</g>
	<path fill="#005281" d="M837.92,202.627c0,0-0.1-1.224,1.052-3.009c0.735-1.146,1.121-3.568,1.755-2.991s-0.546,2.63,0.091,2.549
		c0.637-0.082,3.377-4.209,3.948-3.686c0.573,0.523-2.261,4.25-1.689,4.178c0.568-0.074,2.797-3.753,3.605-3.016
		c0.812,0.741-3.001,4.089-2.564,4.485c0.436,0.397,2.786-1.778,3.438-1.183c0.651,0.595-3.344,2.813-3.009,2.772
		c0.334-0.043,2.735-0.47,2.81,0.01c0.082,0.539-4.957,1.707-5.604,2.755c-0.646,1.05-9.952,11.297-12.367,11.112
		c-2.417-0.184-12.694-8.373-13.298-10.82c-0.602-2.449,0.577-4.904,2.188-5.112c1.604-0.206,11.152,7.866,11.66,7.802
		C830.438,208.407,837.92,202.627,837.92,202.627z"/>
	<path fill="#2B478B" d="M840.64,200.179c0.214,0.345,0.324,0.729,0.384,1.122c-0.01,0.064,0.272,1.324-0.73,2.387
		C840.646,202.861,841.041,201.947,840.64,200.179z"/>
	<path fill="#2B478B" d="M813.888,215.9c0,0-10.344,6.988-11.545,8.482c-0.896,1.119,0.742,14.65,0.742,14.65
		s3.842,0.42,5.713-0.812c0,0-0.337-9.289,0.153-9.613c0.49-0.321,11.552-4.243,11.552-4.243l-0.25-5.517L813.888,215.9z"/>
	<path fill="#005281" d="M797.368,186.57c0,0-1.71,0.182-7.962,6.026l5.638,14.15l7.075-10.847L797.368,186.57z"/>
	<path fill="#005281" d="M807.487,197.025c0,0-4.324-1.326-5.811-2.202c-1.483-0.876-18.372,31.632-14.866,33.099
		c7.321,3.064,26.32,11.137,26.32,11.137s0.714-1.901,0.279-5.506c-0.746-6.234,0.728-19.906,1.172-22.281
		c0.261-1.396,8.269,3.324,8.269,3.324l4.106-10.369c0,0-9.25-3.978-12.358-5.25C813.733,198.625,807.487,197.025,807.487,197.025z"
		/>
	<g>
		<path fill="#005281" d="M789.586,216.57c2.213-5.406,15.255-20.438,15.369-20.579l-1.823-1.466
			c-0.479,0.598-11.146,13.372-13.489,19.089L789.586,216.57z"/>
	</g>
	<g>
		<g>
			<path fill="#005281" d="M811.349,174.711c0,0-3.281-2.861-6.911,1.083c-2.894,3.145-2.465,2.118-3.896,3.683
				c-1.43,1.565-3.403,1.555-3.918,4.303c-0.515,2.749,0.688,3.415,0.688,3.415s-1.56,1.92-0.688,4.358
				c0.872,2.438,3.716,4.929,6.447,5.125c0,0,3.604,2.956,7.831,2.668c4.226-0.288,2.818-0.55,4.469-0.241
				c1.646,0.307,6.525-1.117,6.411-4.551c0,0,3.318-2.718,1.18-5.848c-2.144-3.127-3.269-5.279-4.132-9.107
				C817.964,175.772,813.34,174.198,811.349,174.711z"/>
		</g>
	</g>
	<path fill="#005281" d="M809.518,176.78c0,0-2.733-0.576-4.539,1.298c-1.804,1.875-4.473,7.695-2.939,12.342
		s4.688,4.163,5.989,3.965c1.301-0.2,3.892-0.695,5.849-4.405C815.834,186.271,816.604,177.251,809.518,176.78z"/>
	<g>
		<polygon fill="#2B478B" points="749.443,218.234 742.457,242.162 751.309,241.995 757.271,220.077 		"/>
		<path fill="#005281" d="M747.88,218.831l9.394,1.246c0,0,1.209-6.456,1.611-9.558c0.49-3.767,0.8-8.653,0.332-8.607
			c-1.312,0.126-3.123,0.607-4.33,1.879C750.716,208.191,747.88,218.831,747.88,218.831z"/>
		<path fill="#005281" d="M754.857,209.348c-0.314,1.127-8.768,32.446-8.768,32.446c13.537,8.854,24.847,3.081,24.847,3.081
			s1.128-21.41,2.08-24.316c0.634-1.926,3.38-14.707,2.146-15.24c-1.578-0.685-3.968-1.695-5.989-2.178
			c-1.728-0.408-8.513-1.396-9.782-1.146C759.393,201.993,756.184,204.613,754.857,209.348z"/>
		<path fill="#005281" d="M762.287,179.415c0,0-5.713-0.533-5.607,4.24c0,0-4.384,1.324-1.848,5.379c0,0-3.348,3.888,1.612,8.26
			c0,0,0.968,5.646,7.138,3.465c0,0,1.662,1.452,4.24-0.119c2.578-1.571,2.978-2.589,2.978-2.589s5.479-0.603,5.123-5.624
			c0,0,3.021-2.196-1.021-5.568c0,0,0.605-6.803-5.248-6.335C769.652,180.524,766.678,175.064,762.287,179.415z"/>
		<path fill="#005281" d="M763.268,198.127c0,0.087-0.729,3.16-1.111,4.784c-0.146,0.608,0.16,1.229,0.728,1.489
			c1.514,0.697,4.486,1.675,6.554-0.187c0.188-0.168,0.289-0.414,0.281-0.667l-0.225-7.343L763.268,198.127z"/>
		<path fill="#005281" d="M762.555,201.226c1.6,0.814,6.423,0.592,7.02-2.388l-0.08-2.63l-6.227,1.92
			C763.269,198.168,762.773,200.288,762.555,201.226z"/>
		<path fill="#2B478B" d="M789.15,248.05c-0.039-0.147-0.166-0.165-0.293-0.183c-1.242-0.176-2.48-0.368-3.696-0.688
			c-0.204-0.056-0.399-0.123-0.583-0.222c-0.328-0.175-0.668-0.208-1.024-0.149c-0.192,0.031-0.388,0.021-0.58,0
			c-0.627-0.072-2.349-0.875-3.248-1.139c-0.206-0.062-0.354-0.236-0.386-0.449c-0.512-3.673-1.57-11.902-1.532-14.564
			c0.05-3.407-0.612-18.865-0.612-18.865l-6.421,1.057c0,0,1.334,11.502,1.445,17.021c0.087,4.261,3.311,13.638,4.346,16.345
			c0.434,1.979,1.869,2.188,2.199,2.271c0.188,0.045,0.354,0.158,0.467,0.317c0.196,0.289,0.434,0.55,0.711,0.771
			c0.205,0.162,0.354,0.363,0.479,0.594c0.224,0.415,0.414,0.844,0.604,1.275c0.126,0.285,0.277,0.389,0.516,0.351
			c0.257-0.042,0.396-0.211,0.423-0.515c0.043-0.444-0.057-0.862-0.238-1.268c-0.17-0.379-0.133-0.585,0.147-0.885
			c0.16-0.172,0.324-0.338,0.525-0.467c0.2-0.135,0.41-0.229,0.66-0.163c0.438,0.16,0.876,0.3,1.33,0.401l0.369,0.115
			c0.015,0.004,0.201,0.066,0.201,0.066c0.029,0.011,0.686,0.156,0.911,0.182c0.183,0.021,0.476,0.065,0.728,0.105
			c0.228,0.035,0.722-0.03,0.734-0.028c0.224,0.019,0.428-0.041,0.608-0.17c0.072-0.056,0.146-0.114,0.123-0.224
			c-0.021-0.096-0.092-0.146-0.188-0.174c-0.146-0.043-0.909-0.224-0.896-0.254c0.229,0.023,0.949,0.086,1.182,0.104
			c0.312,0.026,0.593-0.056,0.83-0.263C789.084,248.277,789.191,248.2,789.15,248.05z"/>
		<path fill="#005281" d="M780.68,221.334l-9.471,3.699c0,0-0.91-6.814-1.656-11.039c-0.645-3.635,4.397-9.618,5.847-8.633
			C778.635,207.564,780.68,221.334,780.68,221.334z"/>
	</g>
	<path opacity="0.6" fill="#005281" d="M635.054,193.843l86.417-0.66l-0.445,5.744c-0.253,3.251-2.956,5.729-6.121,5.609
		l-76.282-2.866c-1.752-0.066-3.398-0.988-4.285-2.541C633.573,197.794,633.334,195.98,635.054,193.843z"/>
	<polygon fill="#005281" points="721.471,193.183 721.535,192.358 635.395,193.444 635.054,193.843 	"/>
	<polygon opacity="0.2" fill="#2B478B" enable-background="new    " points="700.741,204.004 692.893,203.71 687.23,193.444 
		694.885,193.386 	"/>
	<polygon opacity="0.2" fill="#2B478B" enable-background="new    " points="686.816,203.48 681.305,193.489 684.215,193.467 
		689.801,203.593 	"/>
	<path fill="#005281" d="M836.838,214.139l-98.131-6.67l-3.3,31.01c0,0,10.157,17.556,11.555,17.487
		c1.396-0.065,31.048-2.497,33.663-2.116c2.615,0.379,26.45-9.099,27.518-8.789c1.065,0.311,8.52-2.974,8.52-2.974l12.303-7.328
		l12.484-10.995L836.838,214.139z"/>
</g>
<g>
	<g>
		<path fill="#005281" d="M1020.957,84.114c-5.761,13.15-36.438,172.597,4.389,310.095c0.115,0.395,0.463,0.68,0.867,0.719
			l34.062,3.188c0.75,0.067,1.312-0.666,1.011-1.355c-7.06-16.243-49.363-130.717-31.916-303.78c0.041-0.39,0.142-0.765-0.108-1.066
			l-6.643-8.012C1022.146,83.332,1021.252,83.438,1020.957,84.114z"/>
	</g>
	<g>
		<path fill="#005281" d="M1026.38,83.771c0,0,7.452-31.869-13.594-45.522c-21.046-13.652-39.857-0.367-39.857-0.367
			s6.358-0.498,15.089,2.019c0,0-6.067,1.583-10.375,4.216c0,0,12.652-3.942,26.386,0.644c0,0-12.911-0.917-19.14,5.476
			c0,0,12.043-2.362,25.129,7.62c0,0-6.471-0.343-11.959,3.409c0,0,19.396-0.615,24.238,21.176L1026.38,83.771z"/>
	</g>
	<path fill="#005281" d="M1021.987,85.803c0,0,14.107,19.648,9.222,43.1c0,0,3.771-2.908,6.854-10.428c0,0-0.506,9.297-3.219,14.984
		c0,0,2.547-0.54,5.953-7.761c0,0,5.859,13.242-0.291,25.525c0,0,6.879-1.97,10.295-13.641c0,0,2.64,20.392-9.176,30.581
		c0,0,20.047-12.416,17.992-38.535c-2.051-26.119-33.212-46.979-33.212-46.979L1021.987,85.803z"/>
	<path fill="#005281" d="M1021.987,85.803l2.791-1.993c5.784,5.377,26.011,25.538,28.961,47.157
		c2.965,21.713-6.271,32.958-11.727,36.835c11.354-10.299,8.785-30.221,8.785-30.221c-3.416,11.671-10.295,13.641-10.295,13.641
		c6.15-12.283,0.291-25.525,0.291-25.525c-3.406,7.222-5.953,7.761-5.953,7.761c2.713-5.688,3.22-14.984,3.22-14.984
		c-3.082,7.52-6.854,10.428-6.854,10.428C1036.097,105.452,1021.987,85.803,1021.987,85.803z"/>
	<g>
		<path fill="#005281" d="M1028.864,87.247c0,0-15.896-15.043-39.578-8.802c-27.046,7.128-33.231,52.12-14.803,69.231
			c0,0-2.874-22.797-1.036-31.799l3.805,12.183c0,0,1.825-16.792,3.407-22.24l0.498,11.972c0,0,3.884-19.956,11.982-24.934
			c0,0-4.948,7.117-2.479,11.465c0,0,11.188-12.861,15.385-15.935c0,0-0.06,6.35,1.354,8.834c0,0,3.106-10.102,18.375-7.02
			L1028.864,87.247z"/>
	</g>
	<g>
		<path fill="#005281" d="M1001.623,101.797c12.312-17.57,23.4-19.012,26.758-19.093c0.665-0.017,1.031,0.019,1.042-0.005
			l-1.146,1.731c-9.028,5.576-12.227,21.759-12.227,21.759c-2.438-1.983-2.291-5.488-2.291-5.488
			c-2.851,5.957-1.302,19.593-1.302,19.593c-3.78-1.966-6.465-7.109-6.465-7.109c-2.015,5.765,2.95,20.595,2.95,20.595
			c-3.858-3.938-4.729-12.163-4.729-12.163c-2.229,8.599,1.427,21.679,1.427,21.679s-0.081-0.093-0.229-0.261
			C1003.327,140.612,987.843,121.462,1001.623,101.797z"/>
	</g>
	<g>
		<path fill="#005281" d="M979.905,75.402c-25.155,4.337-38.341,27.404-42.927,37.349c3.688-19.614,17.688-42.533,42.396-47.14
			c29.03-5.414,48.488,16.479,48.488,16.479l-0.604,1.367C1023.287,80.513,1007.515,70.644,979.905,75.402z"/>
	</g>
	<g>
		<path fill="#005281" d="M1025.084,82.537c0,0,14.597-12.768,40.733-10.726c26.14,2.041,48.896,28.694,51.553,50.128
			c0,0-4.657-9.673-10.157-14.025c0,0,1.341,3.975,0.613,8.512c0,0-5.328-14.386-11.176-17.761c0,0,1.772,3.433,3.494,12.026
			c0,0-7.061-14.191-9.562-15.812c0,0,2.054,9.588,2.084,13.823c0,0-8.73-12.341-14.16-19.739c0,0,0.062,5.745,1.398,9.718
			c0,0-3.682-5.474-6.244-12.838c0,0-0.242,6.26-2.876,8.756c0,0-5.228-10.468-10.199-12.198c0,0,2.488,4.955,2.199,8.951
			c0,0-15.407-12.369-34.097-7.113L1025.084,82.537z"/>
	</g>
	<path fill="#005281" d="M1024.37,81.83c-0.088-0.437,20.021-2.745,38.826,13.994c18.804,16.739,21.384,45.612,11.946,60.53
		c0,0,5.293-17.005-1.267-24.783c0,0-0.514,10.911-4.707,12.661c0,0,0.273-9.404-2.205-18.755c0,0-3.773,2.212-6.804,4.483
		c0,0,4.904-8.01,4.635-13.91c0,0-4.896,5.075-8.613,7.687c0,0,2.104-15.973-4.451-24.508c0,0,0.378,5.529-2.913,9.52
		c0,0-8.429-19.066-23.864-24.008L1024.37,81.83z"/>
	<path fill="#005281" d="M1063.922,104.786c16.365,18.881,16.072,42.269,11.408,50.914c0.882-3.173,4.345-17.254-1.452-24.129
		c0,0-0.514,10.911-4.707,12.661c0,0,0.272-9.404-2.205-18.755c0,0-3.774,2.212-6.804,4.483c0,0,4.904-8.01,4.635-13.91
		c0,0-4.896,5.075-8.614,7.687c0,0,2.104-15.973-4.452-24.508c0,0,0.38,5.529-2.911,9.52c0,0-8.43-19.066-23.864-24.008
		l-0.225-1.112C1030.692,84.298,1049.117,87.704,1063.922,104.786z"/>
	<g>
		<path fill="#005281" d="M1024.953,84.742c0.193-0.038-0.319-17.943,29.275-33.561c29.597-15.619,52.834,13.7,52.834,13.7
			s-16.252-7.536-27.713-6.251c0,0,10.463,2.814,14.891,8.793c0,0-18.29-9.641-26.06-8.086c0,0,6.181,4.636,8.083,10.113
			c0,0-17.321-4.808-25.479-2.166c0,0,4.542,0.499,6.689,4.179c0,0-21.399,1.059-30.101,12.085L1024.953,84.742z"/>
	</g>
	<g>
		<path fill="#005281" d="M1021.987,79.512c0,0-14.598-12.768-40.733-10.726c-26.139,2.041-48.896,28.693-51.552,50.128
			c0,0,4.658-9.673,10.158-14.026c0,0-1.343,3.976-0.615,8.512c0,0,5.328-14.385,11.177-17.76c0,0-1.775,3.433-3.494,12.026
			c0,0,7.061-14.191,9.562-15.812c0,0-2.055,9.588-2.087,13.824c0,0,8.731-12.341,14.161-19.739c0,0-0.062,5.745-1.399,9.718
			c0,0,3.683-5.475,6.244-12.839c0,0,0.243,6.26,2.876,8.755c0,0,5.227-10.467,10.2-12.198c0,0-2.488,4.954-2.197,8.951
			c0,0,15.405-12.369,34.094-7.114L1021.987,79.512z"/>
	</g>
</g>
<g>
	<g>
		<path fill="#005281" d="M1861.236,136.122c4.543,10.377,28.75,136.203-3.465,244.706c-0.094,0.312-0.365,0.537-0.688,0.568
			l-26.879,2.516c-0.592,0.055-1.033-0.525-0.798-1.07c5.568-12.816,38.954-103.152,25.188-239.724
			c-0.03-0.308-0.11-0.604,0.087-0.842l5.24-6.323C1860.295,135.504,1861.002,135.588,1861.236,136.122z"/>
	</g>
	<g>
		<path fill="#005281" d="M1856.954,135.851c0,0-5.88-25.149,10.729-35.923c16.605-10.771,31.452-0.29,31.452-0.29
			s-5.02-0.393-11.905,1.593c0,0,4.787,1.249,8.188,3.327c0,0-9.985-3.111-20.821,0.508c0,0,10.188-0.724,15.104,4.321
			c0,0-9.504-1.864-19.829,6.014c0,0,5.104-0.271,9.438,2.69c0,0-15.306-0.485-19.129,16.711L1856.954,135.851z"/>
	</g>
	<path fill="#005281" d="M1860.422,137.455c0,0-11.137,15.505-7.277,34.011c0,0-2.977-2.295-5.406-8.229
		c0,0,0.396,7.336,2.541,11.825c0,0-2.012-0.426-4.697-6.125c0,0-4.625,10.45,0.229,20.143c0,0-5.43-1.555-8.125-10.765
		c0,0-2.082,16.092,7.24,24.133c0,0-15.817-9.798-14.197-30.41c1.617-20.612,26.209-37.073,26.209-37.073L1860.422,137.455z"/>
	<path fill="#005281" d="M1860.422,137.455l-2.202-1.573c-4.564,4.243-20.524,20.153-22.854,37.214
		c-2.34,17.135,4.946,26.009,9.251,29.067c-8.96-8.127-6.934-23.848-6.934-23.848c2.694,9.21,8.125,10.765,8.125,10.765
		c-4.854-9.693-0.229-20.143-0.229-20.143c2.688,5.699,4.698,6.125,4.698,6.125c-2.145-4.488-2.541-11.825-2.541-11.825
		c2.432,5.934,5.406,8.229,5.406,8.229C1849.286,152.96,1860.422,137.455,1860.422,137.455z"/>
	<g>
		<path fill="#005281" d="M1854.994,138.594c0,0,12.545-11.871,31.232-6.946c21.344,5.625,26.226,41.13,11.682,54.633
			c0,0,2.27-17.991,0.818-25.094l-3.004,9.614c0,0-1.439-13.252-2.688-17.55l-0.396,9.447c0,0-3.062-15.748-9.455-19.676
			c0,0,3.903,5.616,1.957,9.047c0,0-8.832-10.149-12.144-12.574c0,0,0.049,5.011-1.065,6.971c0,0-2.453-7.972-14.5-5.54
			L1854.994,138.594z"/>
	</g>
	<g>
		<path fill="#005281" d="M1876.493,150.076c-9.716-13.865-18.468-15.003-21.116-15.067c-0.523-0.014-0.812,0.015-0.82-0.004
			l0.903,1.367c7.125,4.4,9.646,17.171,9.646,17.171c1.927-1.565,1.808-4.331,1.808-4.331c2.25,4.701,1.028,15.462,1.028,15.462
			c2.981-1.551,5.101-5.61,5.101-5.61c1.59,4.549-2.328,16.252-2.328,16.252c3.047-3.106,3.733-9.599,3.733-9.599
			c1.761,6.786-1.126,17.107-1.126,17.107s0.063-0.073,0.183-0.206C1875.146,180.706,1887.367,165.595,1876.493,150.076z"/>
	</g>
	<g>
		<path fill="#005281" d="M1893.629,129.247c19.854,3.423,30.257,21.625,33.875,29.474c-2.909-15.479-13.959-33.565-33.457-37.2
			c-22.91-4.272-38.267,13.003-38.267,13.003l0.479,1.079C1859.396,133.28,1871.843,125.492,1893.629,129.247z"/>
	</g>
	<g>
		<path fill="#005281" d="M1857.977,134.877c0,0-11.52-10.075-32.146-8.464c-20.627,1.61-38.586,22.644-40.682,39.558
			c0,0,3.676-7.633,8.017-11.067c0,0-1.059,3.136-0.484,6.717c0,0,4.205-11.353,8.818-14.016c0,0-1.399,2.709-2.757,9.49
			c0,0,5.569-11.199,7.544-12.478c0,0-1.62,7.566-1.646,10.908c0,0,6.894-9.738,11.178-15.577c0,0-0.049,4.534-1.104,7.669
			c0,0,2.903-4.32,4.929-10.131c0,0,0.19,4.939,2.271,6.91c0,0,4.123-8.261,8.049-9.626c0,0-1.964,3.91-1.735,7.064
			c0,0,12.159-9.761,26.904-5.613L1857.977,134.877z"/>
	</g>
	<path fill="#005281" d="M1858.541,134.319c0.068-0.345-15.802-2.167-30.64,11.043c-14.839,13.21-16.875,35.994-9.431,47.767
		c0,0-4.177-13.419,0.999-19.557c0,0,0.404,8.611,3.715,9.992c0,0-0.217-7.421,1.739-14.8c0,0,2.979,1.745,5.369,3.538
		c0,0-3.87-6.32-3.657-10.977c0,0,3.864,4.005,6.799,6.066c0,0-1.659-12.605,3.515-19.34c0,0-0.299,4.364,2.299,7.513
		c0,0,6.65-15.046,18.832-18.945L1858.541,134.319z"/>
	<path fill="#005281" d="M1827.329,152.435c-12.915,14.899-12.686,33.356-9.003,40.178c-0.694-2.504-3.428-13.616,1.146-19.042
		c0,0,0.404,8.611,3.715,9.992c0,0-0.217-7.421,1.739-14.8c0,0,2.979,1.745,5.368,3.538c0,0-3.869-6.32-3.656-10.977
		c0,0,3.863,4.005,6.798,6.066c0,0-1.66-12.605,3.516-19.34c0,0-0.299,4.364,2.299,7.513c0,0,6.65-15.046,18.832-18.945l0.177-0.878
		C1853.551,136.267,1839.012,138.955,1827.329,152.435z"/>
	<g>
		<path fill="#005281" d="M1858.082,136.617c-0.154-0.03,0.253-14.16-23.104-26.484c-23.355-12.325-41.693,10.812-41.693,10.812
			s12.825-5.947,21.868-4.934c0,0-8.255,2.221-11.749,6.939c0,0,14.434-7.608,20.562-6.381c0,0-4.876,3.658-6.379,7.98
			c0,0,13.671-3.794,20.105-1.709c0,0-3.584,0.394-5.28,3.297c0,0,16.889,0.835,23.755,9.537L1858.082,136.617z"/>
	</g>
	<g>
		<path fill="#005281" d="M1860.422,132.49c0,0,11.518-10.076,32.146-8.464c20.625,1.61,38.584,22.643,40.682,39.558
			c0,0-3.677-7.633-8.018-11.068c0,0,1.061,3.138,0.484,6.717c0,0-4.206-11.352-8.818-14.015c0,0,1.398,2.709,2.758,9.49
			c0,0-5.569-11.199-7.545-12.478c0,0,1.621,7.566,1.646,10.909c0,0-6.892-9.738-11.174-15.577c0,0,0.047,4.534,1.104,7.669
			c0,0-2.902-4.32-4.93-10.132c0,0-0.19,4.94-2.271,6.909c0,0-4.124-8.26-8.05-9.625c0,0,1.965,3.909,1.734,7.063
			c0,0-12.158-9.761-26.904-5.614L1860.422,132.49z"/>
	</g>
</g>
<g>
	<g>
		<path fill="#005281" d="M1210.337,152.599c4.544,10.377,28.751,136.203-3.466,244.706c-0.092,0.312-0.364,0.537-0.686,0.568
			l-26.88,2.516c-0.592,0.057-1.032-0.522-0.798-1.068c5.569-12.817,38.955-103.152,25.188-239.725
			c-0.03-0.308-0.11-0.604,0.086-0.842l5.241-6.323C1209.396,151.981,1210.104,152.065,1210.337,152.599z"/>
	</g>
	<g>
		<path fill="#005281" d="M1206.055,152.328c0,0-5.88-25.149,10.729-35.923c16.606-10.773,31.453-0.29,31.453-0.29
			s-5.021-0.393-11.906,1.593c0,0,4.788,1.249,8.188,3.327c0,0-9.985-3.111-20.82,0.508c0,0,10.188-0.724,15.103,4.321
			c0,0-9.504-1.864-19.829,6.014c0,0,5.104-0.271,9.438,2.69c0,0-15.305-0.485-19.128,16.711L1206.055,152.328z"/>
	</g>
	<path fill="#005281" d="M1209.521,153.932c0,0-11.137,15.505-7.276,34.011c0,0-2.979-2.295-5.407-8.229
		c0,0,0.397,7.336,2.541,11.825c0,0-2.011-0.426-4.698-6.125c0,0-4.625,10.45,0.229,20.143c0,0-5.429-1.555-8.124-10.765
		c0,0-2.082,16.092,7.24,24.133c0,0-15.818-9.798-14.198-30.41c1.618-20.612,26.209-37.073,26.209-37.073L1209.521,153.932z"/>
	<path fill="#005281" d="M1209.521,153.932l-2.201-1.573c-4.566,4.243-20.525,20.153-22.854,37.214
		c-2.34,17.135,4.945,26.009,9.251,29.065c-8.96-8.128-6.933-23.849-6.933-23.849c2.693,9.21,8.124,10.767,8.124,10.767
		c-4.854-9.692-0.229-20.145-0.229-20.145c2.688,5.699,4.698,6.125,4.698,6.125c-2.145-4.488-2.541-11.825-2.541-11.825
		c2.432,5.934,5.407,8.229,5.407,8.229C1198.387,169.437,1209.521,153.932,1209.521,153.932z"/>
	<g>
		<path fill="#005281" d="M1204.095,155.071c0,0,12.545-11.871,31.232-6.946c21.344,5.625,26.226,41.13,11.682,54.633
			c0,0,2.271-17.991,0.817-25.094l-3.003,9.614c0,0-1.439-13.252-2.688-17.55l-0.395,9.447c0,0-3.063-15.748-9.456-19.676
			c0,0,3.902,5.616,1.957,9.047c0,0-8.832-10.149-12.144-12.574c0,0,0.049,5.011-1.065,6.971c0,0-2.453-7.972-14.5-5.54
			L1204.095,155.071z"/>
	</g>
	<g>
		<path fill="#005281" d="M1225.594,166.553c-9.716-13.865-18.469-15.003-21.117-15.067c-0.522-0.014-0.812,0.015-0.819-0.004
			l0.904,1.367c7.125,4.4,9.646,17.171,9.646,17.171c1.927-1.565,1.809-4.331,1.809-4.331c2.25,4.701,1.027,15.462,1.027,15.462
			c2.982-1.551,5.102-5.61,5.102-5.61c1.59,4.549-2.328,16.252-2.328,16.252c3.047-3.106,3.732-9.599,3.732-9.599
			c1.762,6.786-1.126,17.107-1.126,17.107s0.064-0.073,0.183-0.206C1224.248,197.183,1236.468,182.072,1225.594,166.553z"/>
	</g>
	<g>
		<path fill="#005281" d="M1242.729,145.724c19.854,3.423,30.259,21.625,33.875,29.474c-2.907-15.479-13.959-33.565-33.457-37.2
			c-22.908-4.272-38.266,13.003-38.266,13.003l0.479,1.079C1208.496,149.757,1220.943,141.969,1242.729,145.724z"/>
	</g>
	<g>
		<path fill="#005281" d="M1207.077,151.354c0,0-11.521-10.075-32.146-8.464c-20.627,1.61-38.586,22.644-40.683,39.558
			c0,0,3.677-7.633,8.018-11.067c0,0-1.059,3.136-0.483,6.717c0,0,4.205-11.353,8.817-14.016c0,0-1.398,2.709-2.757,9.49
			c0,0,5.569-11.199,7.544-12.479c0,0-1.62,7.566-1.646,10.908c0,0,6.893-9.738,11.176-15.577c0,0-0.048,4.534-1.104,7.669
			c0,0,2.902-4.32,4.929-10.131c0,0,0.189,4.939,2.271,6.91c0,0,4.123-8.261,8.049-9.626c0,0-1.964,3.91-1.734,7.064
			c0,0,12.159-9.761,26.904-5.613L1207.077,151.354z"/>
	</g>
	<path fill="#005281" d="M1207.643,150.796c0.068-0.345-15.802-2.167-30.641,11.043s-16.875,35.994-9.429,47.769
		c0,0-4.177-13.418,0.999-19.559c0,0,0.404,8.611,3.715,9.992c0,0-0.217-7.421,1.739-14.8c0,0,2.979,1.745,5.368,3.538
		c0,0-3.869-6.32-3.656-10.977c0,0,3.863,4.005,6.798,6.066c0,0-1.659-12.605,3.515-19.34c0,0-0.299,4.364,2.299,7.513
		c0,0,6.65-15.046,18.832-18.945L1207.643,150.796z"/>
	<path fill="#005281" d="M1176.43,168.912c-12.915,14.899-12.685,33.355-9.003,40.178c-0.693-2.504-3.429-13.616,1.146-19.042
		c0,0,0.402,8.611,3.715,9.992c0,0-0.217-7.421,1.739-14.8c0,0,2.979,1.745,5.369,3.538c0,0-3.87-6.32-3.657-10.977
		c0,0,3.864,4.005,6.798,6.066c0,0-1.66-12.605,3.515-19.34c0,0-0.299,4.364,2.299,7.513c0,0,6.65-15.046,18.832-18.945l0.178-0.878
		C1202.651,152.744,1188.112,155.432,1176.43,168.912z"/>
	<g>
		<path fill="#005281" d="M1207.182,153.094c-0.152-0.03,0.254-14.16-23.104-26.484c-23.354-12.325-41.692,10.812-41.692,10.812
			s12.825-5.947,21.868-4.934c0,0-8.256,2.221-11.749,6.939c0,0,14.433-7.608,20.562-6.381c0,0-4.876,3.658-6.38,7.98
			c0,0,13.672-3.794,20.104-1.709c0,0-3.584,0.394-5.279,3.297c0,0,16.89,0.835,23.754,9.537L1207.182,153.094z"/>
	</g>
	<g>
		<path fill="#005281" d="M1209.521,148.967c0,0,11.519-10.076,32.146-8.464c20.625,1.61,38.584,22.643,40.681,39.558
			c0,0-3.676-7.633-8.017-11.068c0,0,1.062,3.138,0.485,6.717c0,0-4.206-11.352-8.819-14.015c0,0,1.399,2.709,2.758,9.49
			c0,0-5.568-11.199-7.545-12.478c0,0,1.621,7.566,1.646,10.909c0,0-6.893-9.738-11.175-15.577c0,0,0.048,4.534,1.104,7.669
			c0,0-2.903-4.32-4.929-10.132c0,0-0.191,4.94-2.271,6.909c0,0-4.124-8.26-8.05-9.625c0,0,1.965,3.909,1.735,7.063
			c0,0-12.159-9.761-26.906-5.614L1209.521,148.967z"/>
	</g>
</g>
<g>
	<g>
		<path fill="#005281" d="M172.642,129.398c-4.544,10.377-28.751,136.204,3.465,244.706c0.092,0.312,0.365,0.537,0.685,0.568
			l26.879,2.516c0.592,0.058,1.034-0.522,0.798-1.067c-5.57-12.818-38.955-103.153-25.188-239.723
			c0.031-0.308,0.111-0.604-0.086-0.842l-5.241-6.323C173.583,128.78,172.875,128.864,172.642,129.398z"/>
	</g>
	<g>
		<path fill="#005281" d="M176.923,129.127c0,0,5.88-25.149-10.728-35.923c-16.607-10.773-31.453-0.29-31.453-0.29
			s5.019-0.393,11.906,1.593c0,0-4.788,1.249-8.188,3.327c0,0,9.986-3.111,20.821,0.508c0,0-10.188-0.724-15.102,4.321
			c0,0,9.504-1.864,19.829,6.014c0,0-5.105-0.271-9.437,2.69c0,0,15.305-0.485,19.128,16.711L176.923,129.127z"/>
	</g>
	<path fill="#005281" d="M173.457,130.731c0,0,11.136,15.505,7.277,34.011c0,0,2.977-2.295,5.408-8.229
		c0,0-0.398,7.336-2.541,11.825c0,0,2.01-0.426,4.698-6.125c0,0,4.625,10.45-0.229,20.143c0,0,5.429-1.555,8.124-10.765
		c0,0,2.082,16.092-7.24,24.133c0,0,15.819-9.798,14.198-30.41c-1.618-20.612-26.209-37.073-26.209-37.073L173.457,130.731z"/>
	<path fill="#005281" d="M173.457,130.731l2.202-1.573c4.566,4.243,20.526,20.153,22.854,37.214
		c2.34,17.135-4.946,26.009-9.251,29.067c8.96-8.127,6.932-23.848,6.932-23.848c-2.695,9.21-8.124,10.765-8.124,10.765
		c4.854-9.693,0.229-20.143,0.229-20.143c-2.688,5.699-4.698,6.125-4.698,6.125c2.143-4.488,2.541-11.825,2.541-11.825
		c-2.432,5.934-5.408,8.229-5.408,8.229C184.591,146.236,173.457,130.731,173.457,130.731z"/>
	<g>
		<path fill="#005281" d="M178.883,131.87c0,0-12.545-11.871-31.233-6.946c-21.343,5.625-26.225,41.13-11.681,54.633
			c0,0-2.269-17.991-0.818-25.094l3.003,9.614c0,0,1.44-13.252,2.688-17.55l0.394,9.447c0,0,3.064-15.748,9.456-19.676
			c0,0-3.904,5.616-1.957,9.047c0,0,8.832-10.149,12.142-12.574c0,0-0.048,5.011,1.067,6.971c0,0,2.453-7.972,14.5-5.54
			L178.883,131.87z"/>
	</g>
	<g>
		<path fill="#005281" d="M157.385,143.352c9.716-13.865,18.468-15.003,21.117-15.067c0.524-0.014,0.813,0.015,0.821-0.004
			l-0.904,1.367c-7.125,4.4-9.646,17.171-9.646,17.171c-1.926-1.565-1.807-4.331-1.807-4.331c-2.25,4.7-1.028,15.461-1.028,15.461
			c-2.983-1.551-5.101-5.61-5.101-5.61c-1.589,4.549,2.329,16.252,2.329,16.252c-3.047-3.106-3.734-9.599-3.734-9.599
			c-1.761,6.787,1.126,17.108,1.126,17.108s-0.065-0.073-0.182-0.206C158.73,173.982,146.511,158.871,157.385,143.352z"/>
	</g>
	<g>
		<path fill="#005281" d="M140.25,122.522c-19.853,3.423-30.257,21.625-33.875,29.474c2.909-15.479,13.959-33.565,33.457-37.2
			c22.91-4.272,38.266,13.003,38.266,13.003l-0.479,1.079C174.482,126.556,162.036,118.768,140.25,122.522z"/>
	</g>
	<g>
		<path fill="#005281" d="M175.901,128.153c0,0,11.519-10.075,32.145-8.464c20.627,1.61,38.586,22.644,40.682,39.558
			c0,0-3.676-7.633-8.017-11.067c0,0,1.059,3.136,0.485,6.717c0,0-4.205-11.353-8.819-14.016c0,0,1.4,2.709,2.757,9.49
			c0,0-5.57-11.199-7.544-12.478c0,0,1.62,7.566,1.646,10.908c0,0-6.892-9.738-11.176-15.577c0,0,0.048,4.534,1.104,7.669
			c0,0-2.903-4.32-4.928-10.131c0,0-0.191,4.939-2.27,6.91c0,0-4.123-8.261-8.049-9.626c0,0,1.964,3.91,1.736,7.064
			c0,0-12.159-9.761-26.905-5.613L175.901,128.153z"/>
	</g>
	<path fill="#005281" d="M175.335,127.595c-0.068-0.345,15.802-2.167,30.64,11.043c14.839,13.21,16.875,35.994,9.429,47.767
		c0,0,4.177-13.419-0.999-19.557c0,0-0.404,8.611-3.715,9.992c0,0,0.217-7.421-1.739-14.8c0,0-2.979,1.745-5.369,3.538
		c0,0,3.87-6.32,3.657-10.977c0,0-3.864,4.005-6.798,6.066c0,0,1.66-12.605-3.514-19.34c0,0,0.299,4.364-2.299,7.513
		c0,0-6.651-15.046-18.832-18.945L175.335,127.595z"/>
	<path fill="#005281" d="M206.548,145.711c12.915,14.899,12.684,33.356,9.003,40.178c0.695-2.504,3.428-13.616-1.146-19.042
		c0,0-0.404,8.611-3.715,9.992c0,0,0.217-7.421-1.739-14.8c0,0-2.979,1.745-5.369,3.538c0,0,3.87-6.32,3.657-10.977
		c0,0-3.864,4.005-6.798,6.066c0,0,1.66-12.605-3.514-19.34c0,0,0.299,4.364-2.299,7.513c0,0-6.651-15.046-18.832-18.945
		l-0.176-0.878C180.328,129.543,194.867,132.23,206.548,145.711z"/>
	<g>
		<path fill="#005281" d="M175.796,129.893c0.154-0.03-0.253-14.16,23.103-26.484c23.355-12.325,41.693,10.812,41.693,10.812
			s-12.825-5.947-21.868-4.934c0,0,8.255,2.221,11.749,6.939c0,0-14.433-7.608-20.562-6.381c0,0,4.876,3.658,6.379,7.98
			c0,0-13.671-3.794-20.106-1.709c0,0,3.584,0.394,5.28,3.297c0,0-16.888,0.835-23.754,9.537L175.796,129.893z"/>
	</g>
	<g>
		<path fill="#005281" d="M173.457,125.766c0,0-11.518-10.076-32.145-8.464c-20.626,1.61-38.585,22.643-40.681,39.558
			c0,0,3.676-7.633,8.017-11.068c0,0-1.06,3.138-0.486,6.717c0,0,4.206-11.352,8.82-14.015c0,0-1.4,2.709-2.758,9.49
			c0,0,5.57-11.199,7.545-12.478c0,0-1.621,7.566-1.646,10.909c0,0,6.891-9.738,11.174-15.577c0,0-0.047,4.534-1.104,7.669
			c0,0,2.903-4.32,4.928-10.132c0,0,0.192,4.94,2.27,6.909c0,0,4.124-8.26,8.05-9.625c0,0-1.965,3.909-1.736,7.063
			c0,0,12.159-9.761,26.906-5.614L173.457,125.766z"/>
	</g>
</g>
<rect x="744.816" y="127.875" fill="#005281" width="44.274" height="15.479"/>
<rect x="709.844" y="190.188" fill="#005281" width="3.208" height="3.304"/>
</svg>
